<svg id="Layer_1" data-name="Layer 1" xmlns="http://www.w3.org/2000/svg" viewBox="0 0 796.83 440.21"><defs><style>.cls-1{fill:#01c2d3;}.cls-2{fill:#028cb5;}.cls-3{fill:#fefefe;}</style></defs><path class="cls-1" d="M574.79,342.11c6.72-4.19,14.26-5.22,21.91-5.22q352.75-.08,705.5.06c25.42,0,45.06,18.15,45,45.26q-.48,174.81,0,349.62a44.72,44.72,0,0,1-44.58,44.84q-157.12.2-314.24.08c-1,0-2-.17-3-.26-2.36-6.82-8.92-10-13.17-15.21-2.18-2.66-5.66-4.5-5.14-8.73,3-.1,6.09-.27,9.13-.27q161,0,322,0c16.53,0,23-6.51,23-23.22q0-172.19,0-344.37c0-17.1-6.32-23.39-23.49-23.4q-347.89,0-695.78,0c-3.79,0-7.59.47-11.38.72-.49-4.22-3.62-6.24-6.64-8.62C579.94,350.45,575.2,347.92,574.79,342.11Z" transform="translate(-550.38 -336.84)"/><path class="cls-2" d="M967.05,752.55c-.52,4.23,3,6.07,5.14,8.73,4.25,5.2,10.81,8.39,13.17,15.21-2.79.07-5.58.21-8.37.21-125,0-250.08-.21-375.11.34-23.75.11-39.5-9.86-49.46-30.48-1.74-3.61-2-7.82-2-11.95.06-118.53-.11-237.06.34-355.59.06-16.54,9.89-28.62,24.07-36.91.41,5.81,5.15,8.34,9,11.35,3,2.38,6.15,4.4,6.64,8.62-10.94,3.88-14.23,11.81-14.2,23.08q.42,171.39.24,342.78c0,18.06,6.26,24.29,24.48,24.3l357,.1C961,752.34,964,752.47,967.05,752.55Z" transform="translate(-550.38 -336.84)"/><path class="cls-3" d="M967.05,752.55c-3-.08-6.1-.21-9.14-.21l-357-.1c-18.22,0-24.47-6.24-24.48-24.3q0-171.39-.24-342.78c0-11.27,3.26-19.2,14.2-23.08,3.79-.25,7.59-.72,11.38-.72q347.9-.06,695.78,0c17.17,0,23.49,6.3,23.49,23.4q0,172.18,0,344.37c0,16.71-6.43,23.22-23,23.22q-161,0-322,0C973.14,752.28,970.09,752.45,967.05,752.55ZM675.49,441.76c5.37-.94,4.61-5.28,4.64-8.87.13-14.24.07-28.49,0-42.74,0-11.54-4.95-16.57-16.52-16.62-15.5-.08-31,0-46.52,0-2.46,0-5.14-.62-7.21,1.49-6.2,2-7.53,6.9-7.54,12.59,0,15-.09,30,0,45,.06,9.54,4.53,14.08,14,14.15,16,.12,32-.06,48,.08C669,446.88,672.81,445.68,675.49,441.76ZM872.44,667c-38.33-.07-76.67-.22-115-.18-8.47,0-13,4.8-13.13,13.41q-.24,23.25,0,46.51c.09,8.54,4.73,13.29,13.25,13.29q95.6,0,191.19-.2,96.5.1,193,.15c8.1,0,12.9-5.27,13-13.71.13-14,0-28,0-42s-3.49-17.5-17.59-17.5q-101.09,0-202.17,0C914.14,666.77,893.29,666.93,872.44,667Zm333.24-24.68c24.89,0,49.78,0,74.66,0,10.42,0,14.73-4.41,14.78-14.91q.12-21.74,0-43.46c-.06-10.51-4.36-14.89-14.78-14.9q-74.65-.06-149.32,0c-9.94,0-14.33,4.48-14.39,14.49q-.14,21.74,0,43.46c0,11,4.24,15.26,15.16,15.29Q1168.74,642.38,1205.68,642.33ZM659.74,740.11c13.46,0,26.92-.29,40.37.09,11.61.32,17.57-1.46,18.14-18.57.43-13,.11-25.92.07-38.88,0-11.94-3.94-15.93-16.05-16q-42.64-.12-85.31,0c-10.32,0-14.59,4.46-14.64,15q-.11,21.72,0,43.45c.05,10.48,4.36,14.83,14.78,14.89C631.31,740.19,645.53,740.13,659.74,740.11Zm578.13-73.33c-14.24,0-28.48-.07-42.72,0-10,.07-14.35,4.47-14.42,14.51q-.13,22.14,0,44.29c.07,10,4.49,14.41,14.5,14.43q42.72.12,85.45,0c9.83,0,14.36-4.64,14.43-14.53q.14-22.14,0-44.29c-.07-10-4.5-14.36-14.51-14.42C1266.36,666.71,1252.12,666.78,1237.87,666.78Zm-186.12-24.45v-.06c8.63,0,17.28.18,25.91,0,7.89-.22,12.74-4.57,12.87-12.08q.42-24.4,0-48.82c-.11-7.32-4.7-12-12-12.11-17.27-.29-34.55-.39-51.82-.06-10,.19-13.81,4.79-13.86,15.11q-.08,21.36,0,42.72c0,10.87,4.19,15.08,15.27,15.32C1036,642.47,1043.87,642.33,1051.75,642.33Zm0-195.51v0c8.64,0,17.28.19,25.91-.06,8.22-.23,12.81-4.71,12.92-12.83q.32-23.64,0-47.3c-.1-8.19-4.62-12.83-12.78-12.95q-25.15-.34-50.3,0c-10.42.14-14.62,4.71-14.66,15.14q-.08,21.36,0,42.72c0,10.87,4.2,15.09,15.27,15.33C1036,447,1043.87,446.82,1051.75,446.82Zm.68,24.46c-8.13,0-16.27-.14-24.39,0-11,.24-15.14,4.46-15.18,15.39q-.08,21.36,0,42.71c0,10.26,3.94,14.83,14,15,17,.33,34,.24,51,0,8-.11,12.62-4.92,12.72-13q.27-23.26,0-46.53c-.09-9-4.64-13.36-13.8-13.55C1068.69,471.16,1060.55,471.3,1052.43,471.28ZM744,642.33v0c8.38,0,16.76.16,25.13,0,8.21-.19,13-4.65,13.13-12.63q.35-24,0-48c-.11-7.66-4.84-12.35-12.5-12.45-17-.22-34-.68-51,.11-11.62.54-14.53,6.86-14.29,14.78.43,14.22.55,28.48-.05,42.68-.37,9,3.78,14.92,15.25,15.53C727.77,642.67,735.92,642.33,744,642.33Zm-.51-97.72v0c8.64,0,17.29.16,25.92-.05,7.81-.19,12.73-4.61,12.86-12.12q.42-24.4,0-48.83c-.11-7.29-4.78-12.09-12-12.2-17.53-.25-35.07-.34-52.6,0-8.44.19-13.13,5.78-13.17,14.35-.08,14.5.43,29-.2,43.48-.39,9,4.6,14.93,15.52,15.32C727.77,544.84,735.66,544.61,743.53,544.61ZM640.15,642.34h25.12c9.3-.39,14.85-6,14.89-15.17q.08-21.34,0-42.68c0-9.74-5.47-15.33-15.35-15.42q-24.37-.23-48.74,0c-9,.08-13.61,4.64-13.69,13.63q-.23,22.86,0,45.73c.08,9.39,4.64,13.79,14.19,13.92C624.41,642.44,632.28,642.36,640.15,642.34Zm.33-97.77h25.18c9-.49,14.43-6,14.47-14.87q.09-21.37,0-42.76c0-10-5.24-15.48-15.24-15.58q-24.42-.25-48.83,0-13.54.12-13.66,13.71-.21,22.9,0,45.82c.08,9,4.66,13.53,13.69,13.69C624.2,544.7,632.35,544.58,640.48,544.57Zm103.82-171v0c-8.38,0-16.76-.18-25.14,0-9.21.25-14.53,5.7-14.57,14.67-.07,14.48.28,29-.14,43.45-.24,7.93,2.3,14.29,14.15,14.91,17,.9,34,.43,51,.15,7.93-.13,12.64-5.12,12.73-13q.27-23.62,0-47.26c-.11-8.12-4.77-12.65-12.9-12.86C761.06,373.38,752.68,373.55,744.3,373.55Zm204.58,171c8.13,0,16.25.13,24.38,0,9.06-.18,15.09-6.29,15.13-15.17q.09-21.35,0-42.69c0-9-6-15.25-14.93-15.34q-24.76-.25-49.51,0c-8.57.09-13.2,4.7-13.3,13.25q-.25,23.25,0,46.5c.09,8.89,4.77,13.33,13.87,13.47C932.63,544.68,940.76,544.58,948.88,544.57Zm-.07-171c-8.38,0-16.77-.16-25.15,0s-12.86,4.49-13,12.64q-.35,24,0,48c.11,7.65,4.83,12.36,12.51,12.46q25.51.33,51,0c7.62-.1,14.09-7.06,14.13-14.62q.11-21.35,0-42.71c0-9.83-5.95-15.73-16-15.85C964.56,373.46,956.68,373.53,948.81,373.54Zm-.23,268.8h25.15c8.54-.41,14.63-6.5,14.67-14.9q.11-21.73,0-43.48c0-8.05-6-14.7-13.89-14.83-16.51-.27-33.06-.72-49.53.12-10.66.55-14.49,3.8-14.42,15,.09,14.74-.08,29.49.05,44.24.09,9.06,4.63,13.62,13.58,13.79C932.31,642.47,940.45,642.35,948.58,642.34ZM846.15,446.82c8.37,0,16.75.14,25.11,0,8.55-.18,13.22-4.71,13.32-13.23q.27-23.24,0-46.46c-.1-8.92-4.76-13.44-13.8-13.52q-24.35-.18-48.7,0-13.55.12-13.69,13.62-.23,22.85,0,45.7c.07,9.4,4.63,13.79,14.17,13.92C830.42,446.92,838.29,446.83,846.15,446.82Zm.54,195.53c8.12,0,16.25.13,24.37,0,8.65-.17,13.43-4.61,13.54-13q.3-23.64,0-47.26c-.1-8.14-4.74-12.86-12.8-13q-25.12-.32-50.26,0c-8.49.09-13.07,4.78-13.16,13.38q-.24,23.25,0,46.5c.09,8.57,4.69,13.18,13.18,13.37S838.31,642.36,846.69,642.35Zm-.4-97.77c8.37,0,16.75.16,25.12,0s13.1-4.8,13.19-13.36q.25-23.25,0-46.48c-.09-8.59-4.68-13.28-13.17-13.37q-24.74-.27-49.48,0c-9,.08-13.48,4.7-13.56,13.76q-.21,22.85,0,45.71c.08,9,4.63,13.61,13.56,13.78C830,544.72,838.17,544.6,846.29,544.58Zm308.59,0c8.12,0,16.24.12,24.36,0,9-.17,13.53-4.7,13.62-13.72q.21-22.85,0-45.7c-.08-9.07-4.6-13.72-13.51-13.8q-24.74-.22-49.47,0c-8.52.09-13.13,4.73-13.22,13.3q-.26,23.22,0,46.46c.09,8.88,4.78,13.31,13.87,13.46C1138.65,544.68,1146.77,544.57,1154.88,544.58Zm102.12,0c8.37,0,16.75.16,25.11-.05,8.12-.21,12.85-4.76,13-12.81.22-15.74.2-31.49,0-47.23-.1-8.5-4.79-13.1-13.36-13.18q-24.74-.22-49.48,0c-8.58.08-13.25,4.67-13.35,13.17q-.27,23.24,0,46.47c.09,9,4.7,13.43,13.75,13.59C1240.75,544.69,1248.88,544.58,1257,544.58ZM1154.59,373.53c-8.37,0-16.75-.17-25.12.05-8.07.21-12.7,4.81-12.8,12.94q-.29,23.61,0,47.23c.09,8.14,4.71,12.9,12.74,13,16.74.22,33.49.2,50.24,0,8.49-.09,13.11-4.78,13.2-13.34q.26-23.24,0-46.48c-.1-8.86-4.81-13.28-13.91-13.42C1170.83,373.42,1162.71,373.52,1154.59,373.53Zm102.05,73.3c8.63,0,17.27.27,25.89-.1,5.92-.25,10.21-2.39,11.33-9.62,2.69-17.42.87-34.85,1.07-52.27.08-6.91-5.31-11.2-12.8-11.27q-25.12-.26-50.26,0c-8.14.09-12.85,4.72-13,12.79q-.32,23.63,0,47.25c.09,8.5,4.78,13,13.37,13.19C1240.39,447,1248.52,446.84,1256.64,446.83Z" transform="translate(-550.38 -336.84)"/><path class="cls-1" d="M872.44,667c20.85-.08,41.7-.24,62.54-.25q101.09,0,202.17,0c14.1,0,17.58,3.48,17.59,17.5s.1,28,0,42c-.08,8.44-4.88,13.71-13,13.71q-96.49.06-193-.15c.57-3.91-2.49-5.74-4.56-8.22-4.47-5.35-11.1-8.8-13.76-15.73,2.79-.09,5.58-.26,8.37-.26q86.14,0,172.28,0c17.9,0,17.6,0,17.91-17.57.1-5.93-1.75-7-7.26-7q-87.29.31-174.57.14c-18.8,0-37.59-.17-56.39-.26-2.37-6.82-8.93-10-13.18-15.21C875.4,673.08,871.91,671.25,872.44,667Z" transform="translate(-550.38 -336.84)"/><path class="cls-1" d="M1205.68,642.32q-36.95,0-73.89,0c-10.92,0-15.11-4.29-15.16-15.29q-.09-21.74,0-43.46c.06-10,4.45-14.48,14.39-14.49q74.67-.09,149.32,0c10.42,0,14.72,4.39,14.78,14.9q.11,21.73,0,43.46c0,10.5-4.36,14.88-14.78,14.91C1255.46,642.37,1230.57,642.33,1205.68,642.32Zm-.19-24.42h48c17.31,0,17.07,0,17.33-17.38.09-5.59-1.19-7.26-7-7.21-34.83.3-69.66.14-104.49.14-18.74,0-18.48,0-18.49,18.53,0,5.5,2.16,6,6.67,6C1166.84,617.8,1186.17,617.91,1205.49,617.9Z" transform="translate(-550.38 -336.84)"/><path class="cls-2" d="M872.44,667c-.53,4.24,3,6.07,5.14,8.74,4.25,5.2,10.81,8.39,13.18,15.21l-105.16.24c-17,0-16.63,0-17.1,16.81-.18,6.53,1.81,7.8,8,7.78,51.3-.18,102.61,0,153.92.1,2.66,6.93,9.29,10.38,13.76,15.73,2.07,2.48,5.13,4.31,4.56,8.22q-95.6.12-191.19.2c-8.52,0-13.16-4.75-13.25-13.29q-.25-23.25,0-46.51c.09-8.61,4.66-13.39,13.13-13.41C795.77,666.79,834.11,666.94,872.44,667Z" transform="translate(-550.38 -336.84)"/><path class="cls-2" d="M659.74,740.12c-14.21,0-28.43.07-42.65,0-10.42-.06-14.73-4.41-14.78-14.89q-.1-21.72,0-43.45c0-10.55,4.32-15,14.64-15q42.66-.09,85.31,0c12.11,0,16,4,16.05,16,0,13,.36,25.93-.07,38.88-.57,17.11-6.53,18.89-18.14,18.57C686.66,739.82,673.2,740.11,659.74,740.12Zm.48-48.88H646.5c-19,0-18.84,0-18.29,19.35.11,4,1.22,5.16,5.19,5.1,13.46-.22,26.92-.08,40.39-.08,19.72,0,19.6,0,18.66-19.75-.17-3.64-1.17-4.79-4.79-4.7C678.52,691.38,669.37,691.23,660.22,691.24Z" transform="translate(-550.38 -336.84)"/><path class="cls-1" d="M1237.87,666.78c14.25,0,28.49-.07,42.73,0,10,.06,14.44,4.45,14.51,14.42q.15,22.15,0,44.29c-.07,9.89-4.6,14.5-14.43,14.53q-42.72.12-85.45,0c-10,0-14.43-4.46-14.5-14.43q-.15-22.14,0-44.29c.07-10,4.44-14.44,14.42-14.51C1209.39,666.71,1223.63,666.78,1237.87,666.78Zm.72,48.88h13.73c19.16,0,19,0,18.54-19.21-.1-4.57-1.73-5.39-5.78-5.33-13.47.21-26.95.08-40.42.07-18.57,0-18.35,0-18.18,18.83,0,5,1.8,5.87,6.18,5.72C1221.3,715.45,1230,715.66,1238.59,715.66Z" transform="translate(-550.38 -336.84)"/><path class="cls-1" d="M1051.75,642.33c-7.88,0-15.76.14-23.63,0-11.08-.24-15.23-4.45-15.27-15.32q-.09-21.36,0-42.72c0-10.32,3.88-14.92,13.86-15.11,17.27-.33,34.55-.23,51.82.06,7.31.12,11.9,4.79,12,12.11q.38,24.4,0,48.82c-.13,7.51-5,11.86-12.87,12.08-8.63.23-17.28,0-25.91,0Zm-.07-24.43a31.47,31.47,0,0,1,5.32.05c6.4,1.08,8-1.49,7.89-7.82-.43-16.68-.11-16.69-16.5-16.68a18.13,18.13,0,0,1-3,0c-5.38-.91-7.46,1.32-6.62,6.65a29,29,0,0,1,0,4.57C1038.77,617.9,1038.77,617.9,1051.68,617.9Z" transform="translate(-550.38 -336.84)"/><path class="cls-1" d="M1051.75,446.82c-7.88,0-15.76.14-23.63,0-11.07-.24-15.22-4.46-15.27-15.33q-.08-21.36,0-42.72c0-10.43,4.24-15,14.66-15.14q25.14-.35,50.3,0c8.16.12,12.68,4.76,12.78,12.95q.29,23.66,0,47.3c-.11,8.12-4.7,12.6-12.92,12.83-8.63.25-17.27.06-25.91.06Zm-.57-24.42a26.79,26.79,0,0,1,4.57,0c7.19,1.26,10.46-1.32,9-8.84a12.38,12.38,0,0,1,0-2.28c0-13.36,0-13.36-13.55-13.36-12.4,0-12.4,0-12.4,12.23S1038.77,422.4,1051.18,422.4Z" transform="translate(-550.38 -336.84)"/><path class="cls-1" d="M1052.43,471.29c8.12,0,16.26-.13,24.38,0,9.16.19,13.71,4.58,13.8,13.55q.23,23.26,0,46.53c-.1,8.1-4.69,12.91-12.72,13-17,.26-34,.35-51,0-10-.2-13.91-4.77-14-15q-.09-21.36,0-42.71c0-10.93,4.14-15.15,15.18-15.39C1036.16,471.14,1044.3,471.28,1052.43,471.29Zm0,24.41a36.36,36.36,0,0,1-6.09-.05c-6.7-1.18-8.58,1.94-7.59,8a19.39,19.39,0,0,1,0,3.05c0,13.47,0,13.47,13.46,13.47,12.51,0,12.51,0,12.51-12.13C1064.73,495.7,1064.73,495.7,1052.42,495.7Z" transform="translate(-550.38 -336.84)"/><path class="cls-2" d="M744,642.33c-8.12,0-16.27.34-24.37-.08-11.47-.61-15.62-6.56-15.25-15.53.6-14.2.48-28.46.05-42.68-.24-7.92,2.67-14.24,14.29-14.78,17-.79,34-.33,51-.11,7.66.1,12.39,4.79,12.5,12.45q.36,24,0,48c-.11,8-4.92,12.44-13.13,12.63-8.37.2-16.75,0-25.13,0Zm-.33-24.42c12.77,0,12.77,0,12.77-12.45,0-2.27-.18-4.56,0-6.82.37-3.75-.66-5.56-4.9-5.28a115.58,115.58,0,0,1-15.9,0c-4.6-.33-5.71,1.68-5.24,5.71a46.82,46.82,0,0,1,0,5.3C730.52,617.9,730.52,617.9,743.71,617.91Z" transform="translate(-550.38 -336.84)"/><path class="cls-1" d="M743.53,544.61c-7.87,0-15.76.23-23.63-.05-10.92-.39-15.91-6.3-15.52-15.32.63-14.46.12-29,.2-43.48,0-8.57,4.73-14.16,13.17-14.35,17.53-.37,35.07-.28,52.6,0,7.19.11,11.86,4.91,12,12.2q.38,24.42,0,48.83c-.13,7.51-5,11.93-12.86,12.12-8.63.21-17.28.05-25.92.05Zm.18-48.88c-13.16,0-13.16,0-13.16,12.93,0,11.46,0,11.46,13.87,11.46,12,0,12,0,12-11.79C756.45,495.73,756.45,495.73,743.71,495.73Z" transform="translate(-550.38 -336.84)"/><path class="cls-2" d="M640.15,642.35c-7.87,0-15.74.09-23.61,0-9.55-.13-14.11-4.53-14.19-13.92q-.18-22.87,0-45.73c.08-9,4.67-13.55,13.69-13.63q24.38-.19,48.74,0c9.88.09,15.32,5.68,15.35,15.42q.08,21.35,0,42.68c0,9.18-5.59,14.78-14.89,15.17H640.15Zm1.22-48.89c-13.08,0-13.08,0-13.07,13.06a33.82,33.82,0,0,1,0,5.33c-.85,5.31,1.71,6.47,6.42,6.1a82.58,82.58,0,0,1,13.71,0c4.72.43,6.57-1.15,5.88-5.9a41.36,41.36,0,0,1,0-6.1C654.22,593.46,654.22,593.46,641.37,593.46Z" transform="translate(-550.38 -336.84)"/><path class="cls-2" d="M640.48,544.57c-8.13,0-16.28.13-24.41,0-9-.16-13.61-4.67-13.69-13.69q-.21-22.92,0-45.82.14-13.57,13.66-13.71,24.41-.21,48.83,0c10,.1,15.21,5.58,15.24,15.58q.07,21.38,0,42.76c0,8.85-5.5,14.38-14.47,14.87H640.48Zm.33-24.41c13.43,0,13.43,0,13.43-11,0-13.43,0-13.43-14.06-13.43-11.91,0-11.91,0-11.91,11.79C628.27,520.15,628.27,520.15,640.81,520.16Z" transform="translate(-550.38 -336.84)"/><path class="cls-1" d="M744.3,373.55c8.38,0,16.76-.17,25.13.05,8.13.21,12.79,4.74,12.9,12.86q.31,23.63,0,47.26c-.09,7.91-4.8,12.9-12.73,13-17,.28-34.06.75-51-.15-11.85-.62-14.39-7-14.15-14.91.42-14.47.07-29,.14-43.45,0-9,5.36-14.42,14.57-14.67,8.38-.22,16.76,0,25.14,0Zm-.69,48.84c12.85,0,12.85,0,12.85-10.24,0-14.19,0-14.19-14.22-14.19-11.71,0-11.71,0-11.71,11.38C730.53,422.38,730.53,422.38,743.61,422.39Z" transform="translate(-550.38 -336.84)"/><path class="cls-1" d="M948.88,544.58c-8.12,0-16.25.1-24.37,0-9.1-.14-13.78-4.58-13.87-13.47q-.24-23.25,0-46.5c.1-8.55,4.73-13.16,13.3-13.25q24.75-.24,49.51,0c8.95.09,14.9,6.37,14.93,15.34q.08,21.35,0,42.69c0,8.88-6.07,15-15.13,15.17C965.13,544.7,957,544.57,948.88,544.58Zm.25-24.43c13.35,0,13.35,0,13.36-11.27,0-13.18,0-13.18-13.75-13.18-12.21,0-12.21,0-12.21,11.65C936.53,520.15,936.53,520.15,949.13,520.15Z" transform="translate(-550.38 -336.84)"/><path class="cls-1" d="M948.81,373.54c7.87,0,15.75-.08,23.62,0,10,.12,16,6,16,15.85q.06,21.36,0,42.71c0,7.56-6.51,14.52-14.13,14.62q-25.51.34-51,0c-7.68-.1-12.4-4.81-12.51-12.46q-.36-24,0-48c.11-8.15,4.67-12.44,13-12.64S940.43,373.54,948.81,373.54Zm.89,48.87c12.79,0,12.79,0,12.79-12.62,0-11.84,0-11.84-14.33-11.84-11.64,0-11.64,0-11.64,11.47C936.52,422.41,936.52,422.41,949.7,422.41Z" transform="translate(-550.38 -336.84)"/><path class="cls-1" d="M948.58,642.34c-8.13,0-16.27.13-24.39,0-9-.17-13.49-4.73-13.58-13.79-.13-14.75,0-29.5-.05-44.24-.07-11.24,3.76-14.49,14.42-15,16.47-.84,33-.39,49.53-.12,7.93.13,13.85,6.78,13.89,14.83q.09,21.74,0,43.48c0,8.4-6.13,14.49-14.67,14.9H948.58Zm.67-48.88c-12.71,0-12.71,0-12.71,12.66,0,11.76,0,11.76,14.37,11.76,11.56,0,11.56,0,11.56-11.51C962.47,593.46,962.47,593.46,949.25,593.46Z" transform="translate(-550.38 -336.84)"/><path class="cls-1" d="M846.15,446.83c-7.86,0-15.73.09-23.59,0-9.54-.13-14.1-4.52-14.17-13.92q-.2-22.86,0-45.7.14-13.49,13.69-13.62,24.35-.19,48.7,0c9,.08,13.7,4.6,13.8,13.52q.24,23.24,0,46.46c-.1,8.52-4.77,13.05-13.32,13.23C862.9,447,854.52,446.82,846.15,446.83Zm0-48.88c-11.9,0-11.9,0-11.9,11.21,0,13.24,0,13.24,12.92,13.24,11.52,0,11.52,0,11.52-11.59C858.72,398,858.72,398,846.18,398Z" transform="translate(-550.38 -336.84)"/><path class="cls-1" d="M846.69,642.36c-8.38,0-16.76.15-25.14-.05s-13.09-4.8-13.18-13.37q-.24-23.25,0-46.5c.09-8.6,4.67-13.29,13.16-13.38q25.13-.25,50.26,0c8.06.1,12.7,4.82,12.8,13q.3,23.63,0,47.26c-.11,8.41-4.89,12.85-13.54,13C862.94,642.48,854.81,642.35,846.69,642.36Zm12-36.91c-1.14-4.63,4-13-8.21-12.21-16.12,1-16.16.22-16.16,9.39,0,15.23,0,15.23,9.33,15.24C858.68,617.88,858.68,617.88,858.69,605.45Z" transform="translate(-550.38 -336.84)"/><path class="cls-1" d="M846.29,544.59c-8.12,0-16.25.13-24.36,0-8.93-.17-13.48-4.74-13.56-13.78q-.2-22.86,0-45.71c.08-9.06,4.61-13.68,13.56-13.76q24.73-.21,49.48,0c8.49.09,13.08,4.78,13.17,13.37q.25,23.24,0,46.48c-.09,8.56-4.7,13.17-13.19,13.36S854.66,544.58,846.29,544.59Zm-.19-24.45c12.59,0,12.59,0,12.6-8.95,0-15.47,0-15.47-9.13-15.48-15.27,0-15.27,0-15.27,9.33C834.3,520.13,834.3,520.13,846.1,520.14Z" transform="translate(-550.38 -336.84)"/><path class="cls-1" d="M1154.88,544.57c-8.11,0-16.23.11-24.35,0-9.09-.15-13.78-4.58-13.87-13.46q-.24-23.24,0-46.46c.09-8.57,4.7-13.21,13.22-13.3q24.73-.25,49.47,0c8.91.08,13.43,4.73,13.51,13.8q.21,22.85,0,45.7c-.09,9-4.66,13.55-13.62,13.72C1171.12,544.7,1163,544.58,1154.88,544.57Zm-1.28-24.42c13.36,0,13.36,0,13.36-12.79,0-11.65,0-11.65-13-11.65s-13,0-13,12.4C1141,520.15,1141,520.15,1153.6,520.15Z" transform="translate(-550.38 -336.84)"/><path class="cls-1" d="M1257,544.58c-8.12,0-16.25.11-24.36,0-9.05-.16-13.66-4.63-13.75-13.59q-.23-23.24,0-46.47c.1-8.5,4.77-13.09,13.35-13.17q24.74-.24,49.48,0c8.57.08,13.26,4.68,13.36,13.18.18,15.74.2,31.49,0,47.23-.11,8-4.84,12.6-13,12.81C1273.75,544.74,1265.37,544.58,1257,544.58Zm1-24.44c12.71,0,12.71,0,12.71-12.66,0-11.76,0-11.76-14.36-11.77-11.57,0-11.57,0-11.57,11.52C1244.79,520.14,1244.79,520.14,1258,520.14Z" transform="translate(-550.38 -336.84)"/><path class="cls-1" d="M1154.59,373.52c8.12,0,16.24-.1,24.36,0,9.1.14,13.81,4.56,13.91,13.42q.26,23.24,0,46.48c-.09,8.56-4.71,13.25-13.2,13.34-16.75.17-33.5.19-50.24,0-8-.1-12.65-4.86-12.74-13q-.29-23.61,0-47.23c.1-8.13,4.73-12.73,12.8-12.94C1137.84,373.36,1146.22,373.53,1154.59,373.52Zm-1.11,48.87a25.67,25.67,0,0,1,4.56,0c7.3,1.32,10.36-1.48,8.93-8.89a12.39,12.39,0,0,1,0-2.28c0-13.29,0-13.29-13.6-13.3-12.33,0-12.33,0-12.33,12.29C1141,422.39,1141,422.39,1153.48,422.39Z" transform="translate(-550.38 -336.84)"/><path class="cls-1" d="M1256.64,446.83c-8.12,0-16.25.14-24.37,0-8.59-.18-13.28-4.69-13.37-13.19q-.27-23.62,0-47.25c.11-8.07,4.82-12.7,13-12.79q25.13-.27,50.26,0c7.49.07,12.88,4.36,12.8,11.27-.2,17.42,1.62,34.85-1.07,52.27-1.12,7.23-5.41,9.37-11.33,9.62C1273.91,447.1,1265.27,446.83,1256.64,446.83Zm1-24.44a32.55,32.55,0,0,1,5.32,0c6.35,1.07,8.06-1.42,7.89-7.78-.44-16.67-.12-16.68-16.46-16.68a18.14,18.14,0,0,1-3,0c-5.35-.91-7.47,1.27-6.62,6.62a29,29,0,0,1,0,4.57C1244.8,422.39,1244.8,422.39,1257.67,422.39Z" transform="translate(-550.38 -336.84)"/><path class="cls-2" d="M675.49,441.76c-2.68,3.92-6.47,5.12-11.11,5.09-16-.14-32,0-48-.08-9.44-.07-13.91-4.61-14-14.15-.11-15,0-30,0-45,0-5.69,1.34-10.61,7.54-12.59.63,4.51,4.32,6.53,7.37,9.06,4.78,4,10.16,7.39,12.45,13.62-3.33,7.41-.72,15.18-1.36,22.75a1.65,1.65,0,0,0,1.87,1.85c8.07-.53,16.31,1.8,24.23-1.36C663.17,426.17,669.94,433.34,675.49,441.76Z" transform="translate(-550.38 -336.84)"/><path class="cls-1" d="M629.74,397.7c-2.29-6.23-7.67-9.65-12.45-13.62-3-2.53-6.74-4.55-7.37-9.06,2.07-2.11,4.75-1.48,7.21-1.49,15.51,0,31-.08,46.52,0,11.57.05,16.51,5.08,16.52,16.62,0,14.25.09,28.5,0,42.74,0,3.59.73,7.93-4.64,8.87-5.55-8.42-12.32-15.59-21-20.82-.09-6.1-.39-12.19-.2-18.28.11-3.65-1.11-4.85-4.76-4.75C642.93,398.08,636.33,397.8,629.74,397.7Z" transform="translate(-550.38 -336.84)"/><path class="cls-3" d="M930.42,715.89c-51.31-.08-102.62-.28-153.92-.1-6.19,0-8.18-1.25-8-7.78.47-16.79.12-16.78,17.1-16.81L890.76,691c18.8.09,37.59.25,56.39.26q87.28,0,174.57-.14c5.51,0,7.36,1.06,7.26,7-.31,17.57,0,17.58-17.91,17.57q-86.13,0-172.28,0C936,715.63,933.21,715.8,930.42,715.89Z" transform="translate(-550.38 -336.84)"/><path class="cls-3" d="M1205.49,617.9c-19.32,0-38.65-.1-58,.09-4.51,0-6.67-.51-6.67-6,0-18.53-.25-18.53,18.49-18.53,34.83,0,69.66.16,104.49-.14,5.85,0,7.13,1.62,7,7.21-.26,17.37,0,17.38-17.33,17.38Z" transform="translate(-550.38 -336.84)"/><path class="cls-3" d="M660.22,691.23c9.15,0,18.3.15,27.44-.07,3.62-.09,4.62,1.06,4.79,4.7.94,19.76,1.06,19.76-18.66,19.75-13.47,0-26.93-.14-40.39.08-4,.06-5.08-1.06-5.19-5.1-.55-19.35-.69-19.35,18.29-19.35Z" transform="translate(-550.38 -336.84)"/><path class="cls-3" d="M1238.59,715.66c-8.64,0-17.29-.21-25.93.08-4.38.15-6.14-.71-6.18-5.72-.17-18.83-.39-18.83,18.18-18.83,13.47,0,26.95.14,40.42-.07,4.05-.06,5.68.76,5.78,5.33.45,19.21.62,19.21-18.54,19.21Z" transform="translate(-550.38 -336.84)"/><path class="cls-3" d="M1051.68,617.9c-12.91,0-12.91,0-12.91-13.26a29,29,0,0,0,0-4.57c-.84-5.33,1.24-7.56,6.62-6.65a18.13,18.13,0,0,0,3,0c16.39,0,16.07,0,16.5,16.68.16,6.33-1.49,8.9-7.89,7.82A31.47,31.47,0,0,0,1051.68,617.9Z" transform="translate(-550.38 -336.84)"/><path class="cls-3" d="M1051.18,422.4c-12.41,0-12.41,0-12.41-12.21s0-12.23,12.4-12.23c13.55,0,13.55,0,13.55,13.36a12.38,12.38,0,0,0,0,2.28c1.47,7.52-1.8,10.1-9,8.84A26.79,26.79,0,0,0,1051.18,422.4Z" transform="translate(-550.38 -336.84)"/><path class="cls-3" d="M1052.42,495.7c12.31,0,12.31,0,12.31,12.33,0,12.13,0,12.13-12.51,12.13-13.46,0-13.46,0-13.46-13.47a19.39,19.39,0,0,0,0-3.05c-1-6.05.89-9.17,7.59-8A36.36,36.36,0,0,0,1052.42,495.7Z" transform="translate(-550.38 -336.84)"/><path class="cls-3" d="M743.71,617.91c-13.19,0-13.19,0-13.2-13.55a46.82,46.82,0,0,0,0-5.3c-.47-4,.64-6,5.24-5.71a115.58,115.58,0,0,0,15.9,0c4.24-.28,5.27,1.53,4.9,5.28-.22,2.26,0,4.55,0,6.82C756.48,617.91,756.48,617.91,743.71,617.91Z" transform="translate(-550.38 -336.84)"/><path class="cls-3" d="M743.71,495.73c12.74,0,12.74,0,12.73,12.6,0,11.79,0,11.79-12,11.79-13.87,0-13.87,0-13.87-11.46C730.55,495.73,730.55,495.73,743.71,495.73Z" transform="translate(-550.38 -336.84)"/><path class="cls-3" d="M641.37,593.46c12.85,0,12.85,0,12.85,12.51a41.36,41.36,0,0,0,0,6.1c.69,4.75-1.16,6.33-5.88,5.9a82.58,82.58,0,0,0-13.71,0c-4.71.37-7.27-.79-6.42-6.1a33.82,33.82,0,0,0,0-5.33C628.29,593.47,628.29,593.47,641.37,593.46Z" transform="translate(-550.38 -336.84)"/><path class="cls-3" d="M640.81,520.16c-12.54,0-12.54,0-12.54-12.68,0-11.79,0-11.79,11.91-11.79,14.06,0,14.06,0,14.06,13.43C654.24,520.16,654.24,520.16,640.81,520.16Z" transform="translate(-550.38 -336.84)"/><path class="cls-3" d="M743.61,422.39c-13.08,0-13.08,0-13.08-13.05,0-11.37,0-11.37,11.71-11.38,14.22,0,14.22,0,14.22,14.19C756.46,422.39,756.46,422.39,743.61,422.39Z" transform="translate(-550.38 -336.84)"/><path class="cls-3" d="M949.13,520.15c-12.6,0-12.6,0-12.6-12.8,0-11.65,0-11.65,12.21-11.65,13.75,0,13.75,0,13.75,13.18C962.48,520.15,962.48,520.15,949.13,520.15Z" transform="translate(-550.38 -336.84)"/><path class="cls-3" d="M949.7,422.41c-13.18,0-13.18,0-13.18-13,0-11.47,0-11.47,11.64-11.47,14.32,0,14.32,0,14.33,11.84C962.49,422.41,962.49,422.41,949.7,422.41Z" transform="translate(-550.38 -336.84)"/><path class="cls-3" d="M949.25,593.46c13.22,0,13.22,0,13.22,12.91,0,11.52,0,11.52-11.56,11.51-14.36,0-14.36,0-14.37-11.76C936.54,593.46,936.54,593.46,949.25,593.46Z" transform="translate(-550.38 -336.84)"/><path class="cls-3" d="M846.18,398c12.54,0,12.54,0,12.54,12.86,0,11.59,0,11.59-11.52,11.59-12.91,0-12.91,0-12.92-13.24C834.28,398,834.28,398,846.18,398Z" transform="translate(-550.38 -336.84)"/><path class="cls-3" d="M858.69,605.45c0,12.43,0,12.43-15,12.42-9.34,0-9.34,0-9.33-15.24,0-9.17,0-8.43,16.16-9.39C862.71,592.5,857.55,600.82,858.69,605.45Z" transform="translate(-550.38 -336.84)"/><path class="cls-3" d="M846.1,520.14c-11.8,0-11.8,0-11.8-15.1,0-9.33,0-9.33,15.27-9.33,9.14,0,9.14,0,9.13,15.48C858.69,520.14,858.69,520.14,846.1,520.14Z" transform="translate(-550.38 -336.84)"/><path class="cls-3" d="M1153.6,520.15c-12.59,0-12.59,0-12.59-12,0-12.4,0-12.4,13-12.4s13,0,13,11.65C1167,520.15,1167,520.15,1153.6,520.15Z" transform="translate(-550.38 -336.84)"/><path class="cls-3" d="M1258,520.14c-13.22,0-13.22,0-13.22-12.91,0-11.52,0-11.52,11.57-11.52,14.36,0,14.36,0,14.36,11.77C1270.72,520.14,1270.72,520.14,1258,520.14Z" transform="translate(-550.38 -336.84)"/><path class="cls-3" d="M1153.48,422.39c-12.46,0-12.46,0-12.46-12.14,0-12.29,0-12.29,12.33-12.29,13.6,0,13.6,0,13.6,13.3a12.39,12.39,0,0,0,0,2.28c1.43,7.41-1.63,10.21-8.93,8.89A25.67,25.67,0,0,0,1153.48,422.39Z" transform="translate(-550.38 -336.84)"/><path class="cls-3" d="M1257.67,422.39c-12.87,0-12.87,0-12.87-13.25a29,29,0,0,0,0-4.57c-.85-5.35,1.27-7.53,6.62-6.62a18.14,18.14,0,0,0,3,0c16.34,0,16,0,16.46,16.68.17,6.36-1.54,8.85-7.89,7.78A32.55,32.55,0,0,0,1257.67,422.39Z" transform="translate(-550.38 -336.84)"/><path class="cls-3" d="M629.74,397.7c6.59.1,13.19.38,19.78.21,3.65-.1,4.87,1.1,4.76,4.75-.19,6.09.11,12.18.2,18.28-7.92,3.16-16.16.83-24.23,1.36a1.65,1.65,0,0,1-1.87-1.85C629,412.88,626.41,405.11,629.74,397.7Z" transform="translate(-550.38 -336.84)"/></svg>